<svg width="180" height="58" viewBox="0 0 180 58" fill="none" xmlns="http://www.w3.org/2000/svg">
<path fill-rule="evenodd" clip-rule="evenodd" d="M41.8044 31.8091H68.3177L68.3461 30.2397C68.3461 24.7923 66.721 20.4138 63.4765 17.093C60.2319 13.7779 56.0213 12.1176 50.8391 12.1176C45.9638 12.1176 41.9066 13.7723 38.6734 17.093C35.4402 20.4138 33.8208 24.5819 33.8208 29.6028C33.8208 34.5044 35.4459 38.5815 38.6905 41.8397C41.9351 45.0979 46.1399 46.7242 51.2994 46.7242C54.6235 46.7242 57.493 46.1329 59.9137 44.9558C62.3343 43.7787 64.4083 41.9591 66.1414 39.497L59.1864 36.2274C56.9703 38.3825 54.3224 39.4628 51.2369 39.4628C48.6572 39.4628 46.5377 38.7748 44.8728 37.393C43.2079 36.0113 42.1851 34.1519 41.8044 31.8091ZM56.8339 20.8289C58.442 21.9776 59.5159 23.4674 60.0614 25.304V25.3097H42.1623C43.0885 23.274 44.1 21.8525 45.191 21.045C46.9297 19.7542 48.9469 19.106 51.2483 19.106C53.3677 19.106 55.2258 19.6803 56.8339 20.8289Z" fill="#282828"/>
<path fill-rule="evenodd" clip-rule="evenodd" d="M78.9606 31.8091H105.474L105.502 30.2397C105.502 24.7923 103.877 20.4138 100.633 17.093C97.3881 13.7779 93.1776 12.1176 87.9954 12.1176C83.12 12.1176 79.0629 13.7723 75.8297 17.093C72.5965 20.4138 70.9771 24.5819 70.9771 29.6028C70.9771 34.5044 72.6022 38.5815 75.8467 41.8397C79.0913 45.0979 83.2962 46.7242 88.4556 46.7242C91.7798 46.7242 94.6493 46.1329 97.0699 44.9558C99.4906 43.7787 101.565 41.9591 103.298 39.497L96.3426 36.2274C94.1265 38.3825 91.4786 39.4628 88.3931 39.4628C85.8134 39.4628 83.6939 38.7748 82.029 37.393C80.3641 36.0113 79.3413 34.1519 78.9606 31.8091ZM93.9902 20.8289C95.5982 21.9776 96.6722 23.4674 97.2177 25.304V25.3097H79.3186C80.2448 23.274 81.2562 21.8525 82.3472 21.045C84.086 19.7542 86.1032 19.106 88.4045 19.106C90.524 19.106 92.3821 19.6803 93.9902 20.8289Z" fill="#282828"/>
<path fill-rule="evenodd" clip-rule="evenodd" d="M142.204 0.562988H133.959V16.5926C132.488 15.0971 130.891 13.9769 129.158 13.232C127.425 12.4871 125.572 12.1118 123.6 12.1118C119.31 12.1118 115.668 13.7381 112.668 16.9849C109.668 20.2318 108.167 24.3942 108.167 29.4777C108.167 34.3793 109.713 38.4791 112.816 41.7771C115.918 45.0751 119.589 46.7242 123.839 46.7242C125.731 46.7242 127.487 46.3887 129.107 45.712C130.726 45.0353 132.345 43.9322 133.954 42.3969V45.8769H142.204V0.562988ZM118.918 22.4438C120.606 20.6412 122.725 19.7371 125.277 19.7371C127.891 19.7371 130.05 20.6242 131.754 22.3926C133.465 24.1667 134.317 26.4867 134.317 29.3526C134.317 32.281 133.459 34.6408 131.754 36.4491C130.044 38.2516 127.896 39.1557 125.305 39.1557C122.794 39.1557 120.68 38.2402 118.964 36.4036C117.248 34.5726 116.39 32.2299 116.39 29.3867C116.39 26.5606 117.231 24.252 118.918 22.4438Z" fill="#282828"/>
<path d="M144.426 12.9591H152.858L161.404 33.6117L170.831 12.9591H179.292L158.694 57.9148H150.171L156.932 43.4205L144.426 12.9591Z" fill="#282828"/>
<rect x="12.6885" y="37.5807" width="8.25062" height="8.29627" fill="#282828"/>
<path d="M20.9449 12.9591V0.562988H12.6886V12.9591H0.30127V21.2212H12.6886V33.6173H20.9449V21.2212H33.3322V12.9591H20.9449Z" fill="#017D38"/>
</svg>
